REM DIRINDEX 1\2,1\3,1\4,1\5
REM DIRNAME cjc005,folder01,folder02,folder03,folder04
TITLE ""
FILE "P1Q_j_1761-1774.mp3" MP3
  TRACK 01 AUDIO
    TITLE "3:cjc005_0632"
    INDEX 01 00:00:00
  TRACK 02 AUDIO
    TITLE "0:"
    INDEX 01 00:01:15
  TRACK 03 AUDIO
    TITLE "4:cjc005_0633"
    INDEX 01 00:01:48
  TRACK 04 AUDIO
    TITLE "0:"
    INDEX 01 00:02:67
  TRACK 05 AUDIO
    TITLE "5:cjc005_0634"
    INDEX 01 00:03:19
  TRACK 06 AUDIO
    TITLE "0:"
    INDEX 01 00:05:59
  TRACK 07 AUDIO
    TITLE "3:cjc005_0635"
    INDEX 01 00:06:39
  TRACK 08 AUDIO
    TITLE "0:"
    INDEX 01 00:07:45
  TRACK 09 AUDIO
    TITLE "4:cjc005_0636"
    INDEX 01 00:08:05
  TRACK 10 AUDIO
    TITLE "0:"
    INDEX 01 00:09:34
  TRACK 11 AUDIO
    TITLE "5:cjc005_0637"
    INDEX 01 00:09:61
  TRACK 12 AUDIO
    TITLE "0:"
    INDEX 01 00:13:12
  TRACK 13 AUDIO
    TITLE "3:cjc005_0638"
    INDEX 01 00:13:71
  TRACK 14 AUDIO
    TITLE "0:"
    INDEX 01 00:15:13
  TRACK 15 AUDIO
    TITLE "4:cjc005_0639"
    INDEX 01 00:15:48
  TRACK 16 AUDIO
    TITLE "0:"
    INDEX 01 00:16:51
  TRACK 17 AUDIO
    TITLE "5:cjc005_0640"
    INDEX 01 00:17:02
  TRACK 18 AUDIO
    TITLE "0:"
    INDEX 01 00:20:57
  TRACK 19 AUDIO
    TITLE "3:cjc005_0641"
    INDEX 01 00:21:39
  TRACK 20 AUDIO
    TITLE "0:"
    INDEX 01 00:23:01
  TRACK 21 AUDIO
    TITLE "4:cjc005_0642"
    INDEX 01 00:23:32
  TRACK 22 AUDIO
    TITLE "0:"
    INDEX 01 00:25:37
  TRACK 23 AUDIO
    TITLE "5:cjc005_0643"
    INDEX 01 00:25:64
  TRACK 24 AUDIO
    TITLE "0:"
    INDEX 01 00:29:48
  TRACK 25 AUDIO
    TITLE "3:cjc005_0644"
    INDEX 01 00:30:34
  TRACK 26 AUDIO
    TITLE "0:"
    INDEX 01 00:32:03
  TRACK 27 AUDIO
    TITLE "4:cjc005_0645"
    INDEX 01 00:32:39
  TRACK 28 AUDIO
    TITLE "0:"
    INDEX 01 00:34:14
  TRACK 29 AUDIO
    TITLE "5:cjc005_0646"
    INDEX 01 00:34:38
  TRACK 30 AUDIO
    TITLE "0:"
    INDEX 01 00:38:47
  TRACK 31 AUDIO
    TITLE "3:cjc005_0647"
    INDEX 01 00:39:27
  TRACK 32 AUDIO
    TITLE "0:"
    INDEX 01 00:40:58
  TRACK 33 AUDIO
    TITLE "4:cjc005_0648"
    INDEX 01 00:41:10
  TRACK 34 AUDIO
    TITLE "0:"
    INDEX 01 00:42:06
  TRACK 35 AUDIO
    TITLE "5:cjc005_0649"
    INDEX 01 00:42:33
  TRACK 36 AUDIO
    TITLE "0:"
    INDEX 01 00:46:49
  TRACK 37 AUDIO
    TITLE "3:cjc005_0650"
    INDEX 01 00:47:30
  TRACK 38 AUDIO
    TITLE "0:"
    INDEX 01 00:48:40
  TRACK 39 AUDIO
    TITLE "4:cjc005_0651"
    INDEX 01 00:49:04
  TRACK 40 AUDIO
    TITLE "0:"
    INDEX 01 00:49:63
  TRACK 41 AUDIO
    TITLE "5:cjc005_0652"
    INDEX 01 00:50:19
  TRACK 42 AUDIO
    TITLE "0:"
    INDEX 01 00:55:46
  TRACK 43 AUDIO
    TITLE "3:cjc005_0653"
    INDEX 01 00:56:25
  TRACK 44 AUDIO
    TITLE "0:"
    INDEX 01 00:57:60
  TRACK 45 AUDIO
    TITLE "4:cjc005_0654"
    INDEX 01 00:58:20
  TRACK 46 AUDIO
    TITLE "0:"
    INDEX 01 00:59:53
  TRACK 47 AUDIO
    TITLE "5:cjc005_0655"
    INDEX 01 01:00:04
  TRACK 48 AUDIO
    TITLE "0:"
    INDEX 01 01:03:61
  TRACK 49 AUDIO
    TITLE "3:cjc005_0656"
    INDEX 01 01:04:43
  TRACK 50 AUDIO
    TITLE "0:"
    INDEX 01 01:05:58
  TRACK 51 AUDIO
    TITLE "4:cjc005_0657"
    INDEX 01 01:06:20
  TRACK 52 AUDIO
    TITLE "0:"
    INDEX 01 01:07:51
  TRACK 53 AUDIO
    TITLE "5:cjc005_0658"
    INDEX 01 01:08:03
  TRACK 54 AUDIO
    TITLE "0:"
    INDEX 01 01:12:03
  TRACK 55 AUDIO
    TITLE "3:cjc005_0659"
    INDEX 01 01:12:66
  TRACK 56 AUDIO
    TITLE "0:"
    INDEX 01 01:13:73
  TRACK 57 AUDIO
    TITLE "4:cjc005_0660"
    INDEX 01 01:14:33
  TRACK 58 AUDIO
    TITLE "0:"
    INDEX 01 01:15:60
  TRACK 59 AUDIO
    TITLE "5:cjc005_0661"
    INDEX 01 01:16:16
  TRACK 60 AUDIO
    TITLE "0:"
    INDEX 01 01:20:59
  TRACK 61 AUDIO
    TITLE "3:cjc005_0662"
    INDEX 01 01:21:37
  TRACK 62 AUDIO
    TITLE "0:"
    INDEX 01 01:22:58
  TRACK 63 AUDIO
    TITLE "4:cjc005_0663"
    INDEX 01 01:23:15
  TRACK 64 AUDIO
    TITLE "0:"
    INDEX 01 01:24:39
  TRACK 65 AUDIO
    TITLE "5:cjc005_0664"
    INDEX 01 01:24:67
  TRACK 66 AUDIO
    TITLE "0:"
    INDEX 01 01:28:16
  TRACK 67 AUDIO
    TITLE "3:cjc005_0665"
    INDEX 01 01:28:69
  TRACK 68 AUDIO
    TITLE "0:"
    INDEX 01 01:30:13
  TRACK 69 AUDIO
    TITLE "4:cjc005_0666"
    INDEX 01 01:30:44
  TRACK 70 AUDIO
    TITLE "0:"
    INDEX 01 01:32:45
  TRACK 71 AUDIO
    TITLE "5:cjc005_0667"
    INDEX 01 01:32:72
  TRACK 72 AUDIO
    TITLE "0:"
    INDEX 01 01:37:34
  TRACK 73 AUDIO
    TITLE "3:cjc005_0668"
    INDEX 01 01:38:18
  TRACK 74 AUDIO
    TITLE "0:"
    INDEX 01 01:39:37
  TRACK 75 AUDIO
    TITLE "4:cjc005_0669"
    INDEX 01 01:39:70
  TRACK 76 AUDIO
    TITLE "0:"
    INDEX 01 01:41:18
  TRACK 77 AUDIO
    TITLE "5:cjc005_0670"
    INDEX 01 01:41:44
  TRACK 78 AUDIO
    TITLE "0:"
    INDEX 01 01:45:63
  TRACK 79 AUDIO
    TITLE "3:cjc005_0671"
    INDEX 01 01:46:45
  TRACK 80 AUDIO
    TITLE "0:"
    INDEX 01 01:47:66
  TRACK 81 AUDIO
    TITLE "4:cjc005_0672"
    INDEX 01 01:48:28
  TRACK 82 AUDIO
    TITLE "0:"
    INDEX 01 01:49:18
  TRACK 83 AUDIO
    TITLE "5:cjc005_0673"
    INDEX 01 01:49:51
  TRACK 84 AUDIO
    TITLE "0:"
    INDEX 01 01:53:16
